G75*
%MOIN*%
%OFA0B0*%
%FSLAX25Y25*%
%IPPOS*%
%LPD*%
%AMOC8*
5,1,8,0,0,1.08239X$1,22.5*
%
%ADD10C,0.00000*%
%ADD11C,0.07400*%
%ADD12R,0.07677X0.07677*%
%ADD13R,0.01969X0.01181*%
%ADD14C,0.01000*%
%ADD15C,0.02978*%
D10*
X0001000Y0013598D02*
X0001000Y0078165D01*
X0001004Y0078469D01*
X0001015Y0078774D01*
X0001033Y0079078D01*
X0001059Y0079381D01*
X0001092Y0079684D01*
X0001132Y0079985D01*
X0001180Y0080286D01*
X0001235Y0080585D01*
X0001297Y0080883D01*
X0001366Y0081180D01*
X0001442Y0081475D01*
X0001526Y0081767D01*
X0001617Y0082058D01*
X0001714Y0082346D01*
X0001819Y0082632D01*
X0001930Y0082916D01*
X0002048Y0083196D01*
X0002173Y0083474D01*
X0002305Y0083748D01*
X0002443Y0084020D01*
X0002588Y0084287D01*
X0002739Y0084552D01*
X0002896Y0084812D01*
X0003060Y0085069D01*
X0003230Y0085321D01*
X0003406Y0085570D01*
X0003588Y0085814D01*
X0003776Y0086054D01*
X0003969Y0086289D01*
X0004168Y0086519D01*
X0004373Y0086744D01*
X0004583Y0086965D01*
X0004798Y0087180D01*
X0005019Y0087390D01*
X0005244Y0087595D01*
X0005474Y0087794D01*
X0005709Y0087987D01*
X0005949Y0088175D01*
X0006193Y0088357D01*
X0006442Y0088533D01*
X0006694Y0088703D01*
X0006951Y0088867D01*
X0007211Y0089024D01*
X0007476Y0089175D01*
X0007743Y0089320D01*
X0008015Y0089458D01*
X0008289Y0089590D01*
X0008567Y0089715D01*
X0008847Y0089833D01*
X0009131Y0089944D01*
X0009417Y0090049D01*
X0009705Y0090146D01*
X0009996Y0090237D01*
X0010288Y0090321D01*
X0010583Y0090397D01*
X0010880Y0090466D01*
X0011178Y0090528D01*
X0011477Y0090583D01*
X0011778Y0090631D01*
X0012079Y0090671D01*
X0012382Y0090704D01*
X0012685Y0090730D01*
X0012989Y0090748D01*
X0013294Y0090759D01*
X0013598Y0090763D01*
X0013598Y0090764D02*
X0057693Y0090764D01*
X0057978Y0090761D01*
X0058264Y0090750D01*
X0058549Y0090733D01*
X0058833Y0090709D01*
X0059117Y0090678D01*
X0059400Y0090640D01*
X0059681Y0090595D01*
X0059962Y0090544D01*
X0060242Y0090486D01*
X0060520Y0090421D01*
X0060796Y0090349D01*
X0061070Y0090271D01*
X0061343Y0090186D01*
X0061613Y0090094D01*
X0061881Y0089996D01*
X0062147Y0089892D01*
X0062410Y0089781D01*
X0062670Y0089664D01*
X0062928Y0089541D01*
X0063182Y0089411D01*
X0063433Y0089275D01*
X0063681Y0089134D01*
X0063925Y0088986D01*
X0064166Y0088833D01*
X0064402Y0088673D01*
X0064635Y0088508D01*
X0064864Y0088338D01*
X0065089Y0088162D01*
X0065309Y0087980D01*
X0065525Y0087794D01*
X0065736Y0087602D01*
X0065943Y0087405D01*
X0066145Y0087203D01*
X0066342Y0086996D01*
X0066534Y0086785D01*
X0066720Y0086569D01*
X0066902Y0086349D01*
X0067078Y0086124D01*
X0067248Y0085895D01*
X0067413Y0085662D01*
X0067573Y0085426D01*
X0067726Y0085185D01*
X0067874Y0084941D01*
X0068015Y0084693D01*
X0068151Y0084442D01*
X0068281Y0084188D01*
X0068404Y0083930D01*
X0068521Y0083670D01*
X0068632Y0083407D01*
X0068736Y0083141D01*
X0068834Y0082873D01*
X0068926Y0082603D01*
X0069011Y0082330D01*
X0069089Y0082056D01*
X0069161Y0081780D01*
X0069226Y0081502D01*
X0069284Y0081222D01*
X0069335Y0080941D01*
X0069380Y0080660D01*
X0069418Y0080377D01*
X0069449Y0080093D01*
X0069473Y0079809D01*
X0069490Y0079524D01*
X0069501Y0079238D01*
X0069504Y0078953D01*
X0069504Y0012811D01*
X0069501Y0012526D01*
X0069490Y0012240D01*
X0069473Y0011955D01*
X0069449Y0011671D01*
X0069418Y0011387D01*
X0069380Y0011104D01*
X0069335Y0010823D01*
X0069284Y0010542D01*
X0069226Y0010262D01*
X0069161Y0009984D01*
X0069089Y0009708D01*
X0069011Y0009434D01*
X0068926Y0009161D01*
X0068834Y0008891D01*
X0068736Y0008623D01*
X0068632Y0008357D01*
X0068521Y0008094D01*
X0068404Y0007834D01*
X0068281Y0007576D01*
X0068151Y0007322D01*
X0068015Y0007071D01*
X0067874Y0006823D01*
X0067726Y0006579D01*
X0067573Y0006338D01*
X0067413Y0006102D01*
X0067248Y0005869D01*
X0067078Y0005640D01*
X0066902Y0005415D01*
X0066720Y0005195D01*
X0066534Y0004979D01*
X0066342Y0004768D01*
X0066145Y0004561D01*
X0065943Y0004359D01*
X0065736Y0004162D01*
X0065525Y0003970D01*
X0065309Y0003784D01*
X0065089Y0003602D01*
X0064864Y0003426D01*
X0064635Y0003256D01*
X0064402Y0003091D01*
X0064166Y0002931D01*
X0063925Y0002778D01*
X0063681Y0002630D01*
X0063433Y0002489D01*
X0063182Y0002353D01*
X0062928Y0002223D01*
X0062670Y0002100D01*
X0062410Y0001983D01*
X0062147Y0001872D01*
X0061881Y0001768D01*
X0061613Y0001670D01*
X0061343Y0001578D01*
X0061070Y0001493D01*
X0060796Y0001415D01*
X0060520Y0001343D01*
X0060242Y0001278D01*
X0059962Y0001220D01*
X0059681Y0001169D01*
X0059400Y0001124D01*
X0059117Y0001086D01*
X0058833Y0001055D01*
X0058549Y0001031D01*
X0058264Y0001014D01*
X0057978Y0001003D01*
X0057693Y0001000D01*
X0013598Y0001000D01*
X0013294Y0001004D01*
X0012989Y0001015D01*
X0012685Y0001033D01*
X0012382Y0001059D01*
X0012079Y0001092D01*
X0011778Y0001132D01*
X0011477Y0001180D01*
X0011178Y0001235D01*
X0010880Y0001297D01*
X0010583Y0001366D01*
X0010288Y0001442D01*
X0009996Y0001526D01*
X0009705Y0001617D01*
X0009417Y0001714D01*
X0009131Y0001819D01*
X0008847Y0001930D01*
X0008567Y0002048D01*
X0008289Y0002173D01*
X0008015Y0002305D01*
X0007743Y0002443D01*
X0007476Y0002588D01*
X0007211Y0002739D01*
X0006951Y0002896D01*
X0006694Y0003060D01*
X0006442Y0003230D01*
X0006193Y0003406D01*
X0005949Y0003588D01*
X0005709Y0003776D01*
X0005474Y0003969D01*
X0005244Y0004168D01*
X0005019Y0004373D01*
X0004798Y0004583D01*
X0004583Y0004798D01*
X0004373Y0005019D01*
X0004168Y0005244D01*
X0003969Y0005474D01*
X0003776Y0005709D01*
X0003588Y0005949D01*
X0003406Y0006193D01*
X0003230Y0006442D01*
X0003060Y0006694D01*
X0002896Y0006951D01*
X0002739Y0007211D01*
X0002588Y0007476D01*
X0002443Y0007743D01*
X0002305Y0008015D01*
X0002173Y0008289D01*
X0002048Y0008567D01*
X0001930Y0008847D01*
X0001819Y0009131D01*
X0001714Y0009417D01*
X0001617Y0009705D01*
X0001526Y0009996D01*
X0001442Y0010288D01*
X0001366Y0010583D01*
X0001297Y0010880D01*
X0001235Y0011178D01*
X0001180Y0011477D01*
X0001132Y0011778D01*
X0001092Y0012079D01*
X0001059Y0012382D01*
X0001033Y0012685D01*
X0001015Y0012989D01*
X0001004Y0013294D01*
X0001000Y0013598D01*
X0031653Y0045724D02*
X0031655Y0045776D01*
X0031661Y0045828D01*
X0031671Y0045879D01*
X0031684Y0045929D01*
X0031702Y0045979D01*
X0031723Y0046026D01*
X0031747Y0046072D01*
X0031776Y0046116D01*
X0031807Y0046158D01*
X0031841Y0046197D01*
X0031878Y0046234D01*
X0031918Y0046267D01*
X0031961Y0046298D01*
X0032005Y0046325D01*
X0032051Y0046349D01*
X0032100Y0046369D01*
X0032149Y0046385D01*
X0032200Y0046398D01*
X0032251Y0046407D01*
X0032303Y0046412D01*
X0032355Y0046413D01*
X0032407Y0046410D01*
X0032459Y0046403D01*
X0032510Y0046392D01*
X0032560Y0046378D01*
X0032609Y0046359D01*
X0032656Y0046337D01*
X0032701Y0046312D01*
X0032745Y0046283D01*
X0032786Y0046251D01*
X0032825Y0046216D01*
X0032860Y0046178D01*
X0032893Y0046137D01*
X0032923Y0046095D01*
X0032949Y0046050D01*
X0032972Y0046003D01*
X0032991Y0045954D01*
X0033007Y0045904D01*
X0033019Y0045854D01*
X0033027Y0045802D01*
X0033031Y0045750D01*
X0033031Y0045698D01*
X0033027Y0045646D01*
X0033019Y0045594D01*
X0033007Y0045544D01*
X0032991Y0045494D01*
X0032972Y0045445D01*
X0032949Y0045398D01*
X0032923Y0045353D01*
X0032893Y0045311D01*
X0032860Y0045270D01*
X0032825Y0045232D01*
X0032786Y0045197D01*
X0032745Y0045165D01*
X0032701Y0045136D01*
X0032656Y0045111D01*
X0032609Y0045089D01*
X0032560Y0045070D01*
X0032510Y0045056D01*
X0032459Y0045045D01*
X0032407Y0045038D01*
X0032355Y0045035D01*
X0032303Y0045036D01*
X0032251Y0045041D01*
X0032200Y0045050D01*
X0032149Y0045063D01*
X0032100Y0045079D01*
X0032051Y0045099D01*
X0032005Y0045123D01*
X0031961Y0045150D01*
X0031918Y0045181D01*
X0031878Y0045214D01*
X0031841Y0045251D01*
X0031807Y0045290D01*
X0031776Y0045332D01*
X0031747Y0045376D01*
X0031723Y0045422D01*
X0031702Y0045469D01*
X0031684Y0045519D01*
X0031671Y0045569D01*
X0031661Y0045620D01*
X0031655Y0045672D01*
X0031653Y0045724D01*
X0035272Y0042105D02*
X0035274Y0042157D01*
X0035280Y0042209D01*
X0035290Y0042260D01*
X0035303Y0042310D01*
X0035321Y0042360D01*
X0035342Y0042407D01*
X0035366Y0042453D01*
X0035395Y0042497D01*
X0035426Y0042539D01*
X0035460Y0042578D01*
X0035497Y0042615D01*
X0035537Y0042648D01*
X0035580Y0042679D01*
X0035624Y0042706D01*
X0035670Y0042730D01*
X0035719Y0042750D01*
X0035768Y0042766D01*
X0035819Y0042779D01*
X0035870Y0042788D01*
X0035922Y0042793D01*
X0035974Y0042794D01*
X0036026Y0042791D01*
X0036078Y0042784D01*
X0036129Y0042773D01*
X0036179Y0042759D01*
X0036228Y0042740D01*
X0036275Y0042718D01*
X0036320Y0042693D01*
X0036364Y0042664D01*
X0036405Y0042632D01*
X0036444Y0042597D01*
X0036479Y0042559D01*
X0036512Y0042518D01*
X0036542Y0042476D01*
X0036568Y0042431D01*
X0036591Y0042384D01*
X0036610Y0042335D01*
X0036626Y0042285D01*
X0036638Y0042235D01*
X0036646Y0042183D01*
X0036650Y0042131D01*
X0036650Y0042079D01*
X0036646Y0042027D01*
X0036638Y0041975D01*
X0036626Y0041925D01*
X0036610Y0041875D01*
X0036591Y0041826D01*
X0036568Y0041779D01*
X0036542Y0041734D01*
X0036512Y0041692D01*
X0036479Y0041651D01*
X0036444Y0041613D01*
X0036405Y0041578D01*
X0036364Y0041546D01*
X0036320Y0041517D01*
X0036275Y0041492D01*
X0036228Y0041470D01*
X0036179Y0041451D01*
X0036129Y0041437D01*
X0036078Y0041426D01*
X0036026Y0041419D01*
X0035974Y0041416D01*
X0035922Y0041417D01*
X0035870Y0041422D01*
X0035819Y0041431D01*
X0035768Y0041444D01*
X0035719Y0041460D01*
X0035670Y0041480D01*
X0035624Y0041504D01*
X0035580Y0041531D01*
X0035537Y0041562D01*
X0035497Y0041595D01*
X0035460Y0041632D01*
X0035426Y0041671D01*
X0035395Y0041713D01*
X0035366Y0041757D01*
X0035342Y0041803D01*
X0035321Y0041850D01*
X0035303Y0041900D01*
X0035290Y0041950D01*
X0035280Y0042001D01*
X0035274Y0042053D01*
X0035272Y0042105D01*
X0038891Y0045724D02*
X0038893Y0045776D01*
X0038899Y0045828D01*
X0038909Y0045879D01*
X0038922Y0045929D01*
X0038940Y0045979D01*
X0038961Y0046026D01*
X0038985Y0046072D01*
X0039014Y0046116D01*
X0039045Y0046158D01*
X0039079Y0046197D01*
X0039116Y0046234D01*
X0039156Y0046267D01*
X0039199Y0046298D01*
X0039243Y0046325D01*
X0039289Y0046349D01*
X0039338Y0046369D01*
X0039387Y0046385D01*
X0039438Y0046398D01*
X0039489Y0046407D01*
X0039541Y0046412D01*
X0039593Y0046413D01*
X0039645Y0046410D01*
X0039697Y0046403D01*
X0039748Y0046392D01*
X0039798Y0046378D01*
X0039847Y0046359D01*
X0039894Y0046337D01*
X0039939Y0046312D01*
X0039983Y0046283D01*
X0040024Y0046251D01*
X0040063Y0046216D01*
X0040098Y0046178D01*
X0040131Y0046137D01*
X0040161Y0046095D01*
X0040187Y0046050D01*
X0040210Y0046003D01*
X0040229Y0045954D01*
X0040245Y0045904D01*
X0040257Y0045854D01*
X0040265Y0045802D01*
X0040269Y0045750D01*
X0040269Y0045698D01*
X0040265Y0045646D01*
X0040257Y0045594D01*
X0040245Y0045544D01*
X0040229Y0045494D01*
X0040210Y0045445D01*
X0040187Y0045398D01*
X0040161Y0045353D01*
X0040131Y0045311D01*
X0040098Y0045270D01*
X0040063Y0045232D01*
X0040024Y0045197D01*
X0039983Y0045165D01*
X0039939Y0045136D01*
X0039894Y0045111D01*
X0039847Y0045089D01*
X0039798Y0045070D01*
X0039748Y0045056D01*
X0039697Y0045045D01*
X0039645Y0045038D01*
X0039593Y0045035D01*
X0039541Y0045036D01*
X0039489Y0045041D01*
X0039438Y0045050D01*
X0039387Y0045063D01*
X0039338Y0045079D01*
X0039289Y0045099D01*
X0039243Y0045123D01*
X0039199Y0045150D01*
X0039156Y0045181D01*
X0039116Y0045214D01*
X0039079Y0045251D01*
X0039045Y0045290D01*
X0039014Y0045332D01*
X0038985Y0045376D01*
X0038961Y0045422D01*
X0038940Y0045469D01*
X0038922Y0045519D01*
X0038909Y0045569D01*
X0038899Y0045620D01*
X0038893Y0045672D01*
X0038891Y0045724D01*
X0035272Y0049343D02*
X0035274Y0049395D01*
X0035280Y0049447D01*
X0035290Y0049498D01*
X0035303Y0049548D01*
X0035321Y0049598D01*
X0035342Y0049645D01*
X0035366Y0049691D01*
X0035395Y0049735D01*
X0035426Y0049777D01*
X0035460Y0049816D01*
X0035497Y0049853D01*
X0035537Y0049886D01*
X0035580Y0049917D01*
X0035624Y0049944D01*
X0035670Y0049968D01*
X0035719Y0049988D01*
X0035768Y0050004D01*
X0035819Y0050017D01*
X0035870Y0050026D01*
X0035922Y0050031D01*
X0035974Y0050032D01*
X0036026Y0050029D01*
X0036078Y0050022D01*
X0036129Y0050011D01*
X0036179Y0049997D01*
X0036228Y0049978D01*
X0036275Y0049956D01*
X0036320Y0049931D01*
X0036364Y0049902D01*
X0036405Y0049870D01*
X0036444Y0049835D01*
X0036479Y0049797D01*
X0036512Y0049756D01*
X0036542Y0049714D01*
X0036568Y0049669D01*
X0036591Y0049622D01*
X0036610Y0049573D01*
X0036626Y0049523D01*
X0036638Y0049473D01*
X0036646Y0049421D01*
X0036650Y0049369D01*
X0036650Y0049317D01*
X0036646Y0049265D01*
X0036638Y0049213D01*
X0036626Y0049163D01*
X0036610Y0049113D01*
X0036591Y0049064D01*
X0036568Y0049017D01*
X0036542Y0048972D01*
X0036512Y0048930D01*
X0036479Y0048889D01*
X0036444Y0048851D01*
X0036405Y0048816D01*
X0036364Y0048784D01*
X0036320Y0048755D01*
X0036275Y0048730D01*
X0036228Y0048708D01*
X0036179Y0048689D01*
X0036129Y0048675D01*
X0036078Y0048664D01*
X0036026Y0048657D01*
X0035974Y0048654D01*
X0035922Y0048655D01*
X0035870Y0048660D01*
X0035819Y0048669D01*
X0035768Y0048682D01*
X0035719Y0048698D01*
X0035670Y0048718D01*
X0035624Y0048742D01*
X0035580Y0048769D01*
X0035537Y0048800D01*
X0035497Y0048833D01*
X0035460Y0048870D01*
X0035426Y0048909D01*
X0035395Y0048951D01*
X0035366Y0048995D01*
X0035342Y0049041D01*
X0035321Y0049088D01*
X0035303Y0049138D01*
X0035290Y0049188D01*
X0035280Y0049239D01*
X0035274Y0049291D01*
X0035272Y0049343D01*
D11*
X0035961Y0026551D03*
X0060961Y0030724D03*
X0060961Y0020724D03*
X0060961Y0010724D03*
X0060961Y0040724D03*
X0060961Y0050724D03*
X0060961Y0060724D03*
X0060961Y0070724D03*
X0060961Y0080724D03*
X0010961Y0080724D03*
X0010961Y0070724D03*
X0010961Y0060724D03*
X0010961Y0050724D03*
X0010961Y0040724D03*
X0010961Y0030724D03*
X0010961Y0020724D03*
X0010961Y0010724D03*
D12*
G36*
X0035961Y0040297D02*
X0030534Y0045724D01*
X0035961Y0051151D01*
X0041388Y0045724D01*
X0035961Y0040297D01*
G37*
D13*
G36*
X0037492Y0040851D02*
X0038882Y0039461D01*
X0038048Y0038627D01*
X0036658Y0040017D01*
X0037492Y0040851D01*
G37*
G36*
X0038884Y0042243D02*
X0040274Y0040853D01*
X0039440Y0040019D01*
X0038050Y0041409D01*
X0038884Y0042243D01*
G37*
G36*
X0040276Y0043635D02*
X0041666Y0042245D01*
X0040832Y0041411D01*
X0039442Y0042801D01*
X0040276Y0043635D01*
G37*
G36*
X0041668Y0045027D02*
X0043058Y0043637D01*
X0042224Y0042803D01*
X0040834Y0044193D01*
X0041668Y0045027D01*
G37*
G36*
X0040834Y0047256D02*
X0042224Y0048646D01*
X0043058Y0047812D01*
X0041668Y0046422D01*
X0040834Y0047256D01*
G37*
G36*
X0039442Y0048648D02*
X0040832Y0050038D01*
X0041666Y0049204D01*
X0040276Y0047814D01*
X0039442Y0048648D01*
G37*
G36*
X0038050Y0050040D02*
X0039440Y0051430D01*
X0040274Y0050596D01*
X0038884Y0049206D01*
X0038050Y0050040D01*
G37*
G36*
X0036658Y0051432D02*
X0038048Y0052822D01*
X0038882Y0051988D01*
X0037492Y0050598D01*
X0036658Y0051432D01*
G37*
G36*
X0034429Y0050598D02*
X0033039Y0051988D01*
X0033873Y0052822D01*
X0035263Y0051432D01*
X0034429Y0050598D01*
G37*
G36*
X0033037Y0049206D02*
X0031647Y0050596D01*
X0032481Y0051430D01*
X0033871Y0050040D01*
X0033037Y0049206D01*
G37*
G36*
X0031645Y0047814D02*
X0030255Y0049204D01*
X0031089Y0050038D01*
X0032479Y0048648D01*
X0031645Y0047814D01*
G37*
G36*
X0030253Y0046422D02*
X0028863Y0047812D01*
X0029697Y0048646D01*
X0031087Y0047256D01*
X0030253Y0046422D01*
G37*
G36*
X0031087Y0044193D02*
X0029697Y0042803D01*
X0028863Y0043637D01*
X0030253Y0045027D01*
X0031087Y0044193D01*
G37*
G36*
X0032479Y0042801D02*
X0031089Y0041411D01*
X0030255Y0042245D01*
X0031645Y0043635D01*
X0032479Y0042801D01*
G37*
G36*
X0033871Y0041409D02*
X0032481Y0040019D01*
X0031647Y0040853D01*
X0033037Y0042243D01*
X0033871Y0041409D01*
G37*
G36*
X0035263Y0040017D02*
X0033873Y0038627D01*
X0033039Y0039461D01*
X0034429Y0040851D01*
X0035263Y0040017D01*
G37*
D14*
X0034151Y0039739D02*
X0034151Y0039663D01*
X0020291Y0025409D01*
X0020291Y0019661D01*
X0010961Y0010724D01*
X0010961Y0020724D02*
X0011709Y0021472D01*
X0013205Y0021472D01*
X0032759Y0041027D01*
X0032759Y0041131D01*
X0031367Y0042391D02*
X0019898Y0030921D01*
X0011157Y0030921D01*
X0010961Y0030724D01*
X0010961Y0040724D02*
X0011709Y0040764D01*
X0026984Y0040764D01*
X0030135Y0043915D01*
X0029975Y0043915D01*
X0031367Y0042523D02*
X0031367Y0042391D01*
X0029975Y0047534D02*
X0029975Y0047615D01*
X0026591Y0051000D01*
X0011236Y0051000D01*
X0010961Y0050724D01*
X0010961Y0060724D02*
X0011079Y0060843D01*
X0019504Y0060843D01*
X0031367Y0048979D01*
X0031367Y0048926D01*
X0032759Y0050318D02*
X0032759Y0050343D01*
X0013205Y0069898D01*
X0011787Y0069898D01*
X0010961Y0070724D01*
X0019878Y0071807D02*
X0010961Y0080724D01*
X0019878Y0071807D02*
X0019878Y0065980D01*
X0034149Y0051710D01*
X0034151Y0051710D01*
X0037770Y0051710D02*
X0037930Y0051710D01*
X0052988Y0066768D01*
X0052988Y0072752D01*
X0060961Y0080724D01*
X0060961Y0070724D02*
X0059740Y0069504D01*
X0058480Y0069504D01*
X0039294Y0050318D01*
X0039162Y0050318D01*
X0040554Y0048926D02*
X0040658Y0048926D01*
X0052969Y0060843D01*
X0060449Y0060843D01*
X0060961Y0060724D01*
X0060961Y0050724D02*
X0060843Y0050606D01*
X0045094Y0050606D01*
X0042022Y0047534D01*
X0041946Y0047534D01*
X0041946Y0043915D02*
X0041946Y0043912D01*
X0045094Y0040764D01*
X0060921Y0040764D01*
X0060961Y0040724D01*
X0060961Y0030724D02*
X0060764Y0030528D01*
X0052575Y0030528D01*
X0040579Y0042523D01*
X0040554Y0042523D01*
X0039215Y0041131D02*
X0058087Y0022260D01*
X0059425Y0022260D01*
X0060961Y0020724D01*
X0052181Y0019504D02*
X0060961Y0010724D01*
X0052181Y0019504D02*
X0052181Y0025328D01*
X0037770Y0039739D01*
X0039162Y0041131D02*
X0039215Y0041131D01*
D15*
X0035961Y0045724D03*
M02*
