%
M48
M72
T01C0.013780
T02C0.040000
%
T01
X323416Y457244
X359606Y457244
X359606Y421054
X395797Y457244
X359606Y493435
T02
X109606Y107244
X109606Y207244
X109606Y307244
X109606Y407244
X109606Y507244
X109606Y607244
X109606Y707244
X109606Y807244
X359606Y265512
X609606Y307244
X609606Y207244
X609606Y107244
X609606Y407244
X609606Y507244
X609606Y607244
X609606Y707244
X609606Y807244
M30
